<svg xmlns="http://www.w3.org/2000/svg" width="1223" height="1413" viewBox="0 0 1223 1413">
    <defs>
        <linearGradient id="a" x1="50%" x2="50%" y1="0%" y2="100%">
            <stop offset="0%" stop-color="#06CBEC"/>
            <stop offset="60.845%" stop-color="#036474"/>
            <stop offset="100%" stop-color="#0D58C6"/>
        </linearGradient>
    </defs>
    <path fill="none" fill-rule="evenodd" stroke="url(#a)" stroke-width="2" d="M1045.874 964.43v195.127V964.43zM870.75 863.064l175.125 101.366L1221 863.064H870.749zm0-3.953v202.736l175.125 101.366L1221 1061.847V859.111l-175.126-101.366L870.75 859.111zM175.126 960.275v195.128-195.128zM0 858.91l175.126 101.365L350.25 858.91H0zm0-3.954v202.737l175.126 101.371 175.125-101.371V854.956L175.126 753.59 0 854.956zm608.473-144.253v195.121-195.121zm-175.131-105.32l175.131 105.32 175.12-101.372-350.251-3.947zm0 0v202.731L608.473 909.48l175.12-101.366v-202.73l-175.12-101.372-175.131 101.372zm175.131 606.834v195.128-195.128zm-175.131-101.365l175.131 101.365 175.12-101.365H433.342zm0-3.954v202.737L608.473 1411l175.12-101.365v-202.737l-175.12-101.365-175.131 101.365zm612.532-649.648v190.967V457.25zM870.75 355.878l175.125 101.372L1221 355.878H870.749zm0-3.947v202.73l175.125 101.366L1221 554.66v-202.73l-175.126-101.372L870.75 351.931zM175.126 461.398v190.973-190.973zM0 360.033l175.126 101.365L350.25 360.033H0zm0-3.954V558.81l175.126 101.371L350.25 558.81V356.08L175.126 254.713 0 356.079zM608.473 206.69v199.277V206.69zM433.342 105.325L608.473 206.69l175.12-101.365H433.342zm0-3.954v202.731l175.131 101.371 175.12-101.37V101.37L608.473 0 433.342 101.371zm612.532 861.536l-435.371-252.01-435.377 252.01h870.748zM610.503 206.892l435.371 252.003v504.012L610.503 1214.91 175.126 962.907V458.895l435.377-252.003z" opacity=".1" transform="translate(1 1)"/>
</svg>
