<svg xmlns="http://www.w3.org/2000/svg" width="435" height="162" viewBox="0 0 435 162">
    <g fill="none" fill-rule="evenodd">
        <g fill="#000" fill-rule="nonzero" opacity=".25">
            <path d="M110.064 32.617h-85.03V82.78h84.858V32.617h.172zm-78.131 6.919h71.06V74.13L89.885 55.103c-1.725-2.421-5.692-2.421-7.417 0L69.532 74.476l-6.036-8.821c-1.725-2.422-5.692-2.422-7.417 0l-6.381 9.34-.518 1.038H31.933V39.536z"/>
            <ellipse cx="44.696" cy="52.336" rx="8.796" ry="8.822"/>
            <path d="M108.34 91.082H26.069c-1.38 0-2.588 1.21-2.588 2.594s1.208 2.595 2.588 2.595h82.443c1.38 0 2.587-1.211 2.587-2.595 0-1.384-1.38-2.594-2.76-2.594zM108.34 108.379H26.069c-1.38 0-2.588 1.21-2.588 2.594s1.208 2.595 2.588 2.595h82.443c1.38 0 2.587-1.21 2.587-2.595 0-1.383-1.38-2.594-2.76-2.594zM108.34 18.433H26.069c-1.38 0-2.588 1.211-2.588 2.595 0 1.384 1.208 2.595 2.588 2.595h82.443c1.38 0 2.587-1.211 2.587-2.595 0-1.384-1.38-2.595-2.76-2.595zM108.34 125.676H26.069c-1.38 0-2.588 1.21-2.588 2.595 0 1.383 1.208 2.594 2.588 2.594h82.443c1.38 0 2.587-1.21 2.587-2.594s-1.38-2.595-2.76-2.595z"/>
            <path d="M112.479.271h-89.86c-5.692 0-10.349 4.67-10.349 10.379v4.497h-1.724c-5.692 0-10.349 4.67-10.349 10.378V151.45c0 5.708 4.657 10.378 10.349 10.378h87.79c5.692 0 10.348-4.67 10.348-10.378v-1.73h3.795c5.692 0 10.349-4.67 10.349-10.378V10.65c0-5.708-4.657-10.379-10.349-10.379zM101.785 151.45c0 1.902-1.552 3.46-3.45 3.46h-87.79c-1.897 0-3.449-1.558-3.449-3.46V25.525c0-1.902 1.552-3.46 3.45-3.46h1.724v117.276c0 5.708 4.657 10.378 10.349 10.378h79.166v1.73zm14.143-12.108c0 1.902-1.552 3.46-3.449 3.46h-89.86c-1.897 0-3.45-1.558-3.45-3.46V10.65c0-1.903 1.553-3.46 3.45-3.46h89.86c1.897 0 3.45 1.557 3.45 3.46v128.69z"/>
        </g>
        <path stroke="#979797" stroke-linecap="square" d="M124.5 74.208h317"/>
    </g>
</svg>
