<svg xmlns="http://www.w3.org/2000/svg" width="95" height="13" viewBox="0 0 95 13">
    <g fill="none" fill-rule="evenodd">
        <text fill="#4A90E2" font-family="ProximaNova-Regular, Proxima Nova" font-size="14" transform="translate(-1 -4)">
            <tspan x="0" y="14">Explore</tspan>
        </text>
        <g fill="#255083" fill-rule="nonzero">
            <path d="M94.767 7.122H61.233c-.129 0-.233-.058-.233-.129 0-.07.104-.128.233-.128h33.534c.129 0 .233.057.233.128 0 .071-.104.129-.233.129z"/>
            <path d="M90.185 12a.128.128 0 0 1-.092-.04.139.139 0 0 1 0-.19L94.686 7l-4.593-4.77a.139.139 0 0 1 0-.19.127.127 0 0 1 .184 0l4.685 4.864c.05.053.05.139 0 .191l-4.685 4.865a.127.127 0 0 1-.092.04z"/>
        </g>
        <g fill="#255083" fill-rule="nonzero">
            <path d="M94.767 7.122H61.233c-.129 0-.233-.058-.233-.129 0-.07.104-.128.233-.128h33.534c.129 0 .233.057.233.128 0 .071-.104.129-.233.129z"/>
            <path d="M90.185 12a.128.128 0 0 1-.092-.04.139.139 0 0 1 0-.19L94.686 7l-4.593-4.77a.139.139 0 0 1 0-.19.127.127 0 0 1 .184 0l4.685 4.864c.05.053.05.139 0 .191l-4.685 4.865a.127.127 0 0 1-.092.04z"/>
        </g>
    </g>
</svg>
