<svg xmlns="http://www.w3.org/2000/svg" width="439" height="224" viewBox="0 0 439 224">
    <g fill="none" fill-rule="evenodd">
        <g fill="#000" fill-rule="nonzero" opacity=".253">
            <path d="M139.858 125.641c-.022-.099-.039-.2-.065-.3a4.919 4.919 0 0 0-.445-1.06 4.854 4.854 0 0 0-.703-.916c-.07-.072-.151-.135-.224-.206a5.01 5.01 0 0 0-.716-.546c-.05-.034-.09-.08-.146-.111l-39.87-22.874c5.417-5.897 11.456-14.816 11.456-25.303 0-18.187-14.297-33.238-32.503-34.264a28.862 28.862 0 0 0-1.99-.061h-.019s-1.181.015-1.738.044c-18.36.939-32.742 15.997-32.742 34.283 0 11.035 6.684 20.34 12.293 26.206.034.036.068.07.105.104l-38.107 21.87c-.052.031-.09.075-.145.109a5.004 5.004 0 0 0-.72.55c-.073.068-.151.132-.222.204a4.854 4.854 0 0 0-.703.915 4.837 4.837 0 0 0-.444 1.063c-.03.097-.046.196-.066.296a4.929 4.929 0 0 0-.12.88c-.002.064-.024.124-.024.188v58.509c0 1.734.93 3.336 2.441 4.202l59.115 33.927c.06.034.127.046.186.075.256.136.525.245.806.332.102.032.202.068.307.095a4.91 4.91 0 0 0 1.143.148 4.8 4.8 0 0 0 1.142-.148c.105-.027.205-.063.308-.095.28-.087.549-.196.805-.332.059-.032.127-.044.186-.075l59.12-33.927a4.847 4.847 0 0 0 2.441-4.202v-58.512c0-.065-.022-.126-.027-.19a4.465 4.465 0 0 0-.115-.878zM76 155.028L26.649 126.71l28.687-16.46v14.136c0 6.153 5.034 11.159 11.227 11.159h16.172c6.19 0 11.226-5.004 11.226-11.16v-15.686l31.393 18.011L76 155.03zm-10.9-37.197h19.095v6.551c0 .8-.657 1.454-1.463 1.454H66.56a1.46 1.46 0 0 1-1.462-1.454v-6.551h.003zM49.918 74.327c0-13.115 10.314-23.918 23.466-24.59.422-.022 1.326-.031 1.304-.031.44 0 .876.01 1.354.043 13.087.738 23.342 11.533 23.342 24.578 0 8.175-5.932 15.65-9.527 19.433-2.058 1.956-3.538 3.997-4.4 6.074-1.127 2.713-1.266 5.82-1.261 8.218v.075H65.1v-.055c.01-2.555-.196-4.57-.635-6.307a4.776 4.776 0 0 0-.623-2.002c-.029-.05-.07-.09-.102-.14-.864-1.985-2.3-3.955-4.299-5.86-3.593-3.78-9.525-11.254-9.525-19.436zm-28.15 60.787l49.35 28.322v47.303l-49.35-28.321v-47.304zm59.115 75.625v-47.303l49.356-28.324v47.306l-49.356 28.321zM74 30c2.76 0 5-2.132 5-4.759V4.76C79 2.132 76.76 0 74 0s-5 2.132-5 4.759V25.24C69 27.871 71.24 30 74 30zM36.564 42.613A5.035 5.035 0 0 0 40.06 44a5.035 5.035 0 0 0 3.494-1.387 4.595 4.595 0 0 0 0-6.696l-14.117-13.53c-1.93-1.85-5.059-1.85-6.989 0a4.595 4.595 0 0 0 0 6.695l14.117 13.53zM30 74c0-2.76-2.131-5-4.758-5H4.758C2.13 69 0 71.24 0 74s2.131 5 4.758 5h20.484C27.871 79 30 76.76 30 74zM143.242 69h-20.484C120.13 69 118 71.24 118 74s2.131 5 4.758 5h20.484c2.627 0 4.758-2.24 4.758-5s-2.131-5-4.758-5zM108.941 44a5.034 5.034 0 0 0 3.495-1.388l14.117-13.528a4.597 4.597 0 0 0 0-6.697c-1.93-1.85-5.059-1.85-6.989 0l-14.117 13.529a4.597 4.597 0 0 0 0 6.696A5.038 5.038 0 0 0 108.941 44z"/>
        </g>
        <path stroke="#979797" stroke-linecap="square" d="M141.5 149.25h304"/>
    </g>
</svg>
