<svg xmlns="http://www.w3.org/2000/svg" width="435" height="187" viewBox="0 0 435 187">
    <g fill="none" fill-rule="evenodd">
        <path fill="#000" fill-rule="nonzero" d="M81 0L0 46.75v93.5L81 187l81-46.75v-93.5L81 0zm73.33 48.807l-52.378 28.798-21.14-12.155-21.138 12.155L7.67 48.807 81 6.545l73.33 42.262zM80.813 114.07l-17.21-9.911 17.21-9.163 17.21 9.163-17.21 9.911zm19.268-13.09l-17.21-9.163V70.873l17.21 9.911v20.196zm-21.139-9.163l-17.21 9.163V80.784l17.21-9.911v20.944zM5.612 51.986l52.379 28.798v24.31l.935.561 20.203 11.594.187 62.084-73.704-42.262V51.986zm77.259 127.347l-.187-62.084 20.203-11.594.935-.561v-24.31l52.566-28.798v84.898l-73.517 42.449z" opacity=".246"/>
        <path stroke="#979797" stroke-linecap="square" d="M161.5 94.25h280"/>
    </g>
</svg>
