<svg xmlns="http://www.w3.org/2000/svg" width="32" height="33" viewBox="0 0 32 33">
    <defs>
        <linearGradient id="a" x1="50%" x2="50%" y1="0%" y2="100%">
            <stop offset="0%" stop-color="#06CBEC"/>
            <stop offset="100%" stop-color="#0D61CB"/>
        </linearGradient>
    </defs>
    <path fill="none" fill-rule="evenodd" stroke="url(#a)" d="M.682 0h10.636c.377 0 .682.305.682.682v10.636a.682.682 0 0 1-.682.682H.682A.682.682 0 0 1 0 11.318V.682C0 .305.305 0 .682 0zm18 19h10.636c.377 0 .682.305.682.682v10.636a.682.682 0 0 1-.682.682H18.682a.682.682 0 0 1-.682-.682V19.682c0-.377.305-.682.682-.682zm-18 0h10.636c.377 0 .682.305.682.682v10.636a.682.682 0 0 1-.682.682H.682A.682.682 0 0 1 0 30.318V19.682C0 19.305.305 19 .682 19zm18-19h10.636c.377 0 .682.305.682.682v10.636a.682.682 0 0 1-.682.682H18.682a.682.682 0 0 1-.682-.682V.682c0-.377.305-.682.682-.682z" transform="translate(1 1)"/>
</svg>
