<svg xmlns="http://www.w3.org/2000/svg" width="61" height="67" viewBox="0 0 61 67">
    <g fill="#000" fill-rule="nonzero">
        <path d="M10.4 13.9c4.4-4.5 10.2-7.4 16.4-8.2.4 1.6 1.9 2.9 3.7 2.9 2.1 0 3.9-1.7 3.9-3.9S32.7.8 30.5.8c-2 0-3.6 1.5-3.8 3.4-6.6.8-12.8 3.9-17.4 8.7l1.1 1zM30.5 2.3c1.3 0 2.4 1.1 2.4 2.4C32.9 6 31.8 7 30.5 7c-1.3 0-2.4-1.1-2.4-2.4 0-1.2 1.1-2.3 2.4-2.3zM2.1 41.9l1.4-.4c-.8-2.6-1.1-5.2-1.1-7.9 0-3.7.7-7.4 2.1-10.8.3.1.7.1 1 .1 1.4 0 2.7-.7 3.4-1.9.5-.9.7-1.9.4-2.9-.3-1-.9-1.8-1.8-2.4-.6-.3-1.3-.5-1.9-.5-1.4 0-2.7.7-3.4 1.9-.5.8-.6 1.9-.4 2.9.2.8.7 1.6 1.4 2.1C1.7 25.7.9 29.6.9 33.5c0 2.8.4 5.7 1.2 8.4zm1.4-24.1c.4-.7 1.2-1.2 2.1-1.2.4 0 .8.1 1.2.3.5.3.9.8 1.1 1.5.1.6.1 1.2-.3 1.8-.6 1.1-2.2 1.5-3.3.9-.5-.3-.9-.8-1.1-1.4-.1-.7 0-1.4.3-1.9zM8.2 50.5c.5-.5.8-1 1-1.7.3-1 .1-2-.4-2.9-.7-1.2-2-2-3.4-2-.7 0-1.3.2-1.9.5-.9.5-1.5 1.3-1.8 2.3-.3 1-.1 2 .4 2.9.7 1.2 2 2 3.4 2 .5 0 1-.1 1.5-.3 3.9 5.1 9.3 8.9 15.4 10.6l.4-1.4c-5.8-1.6-11-5.2-14.6-10zm-4.8-1.6c-.4-.5-.4-1.2-.3-1.8.2-.6.6-1.1 1.1-1.4.4-.2.8-.3 1.2-.3.9 0 1.7.5 2.1 1.2.3.6.4 1.2.2 1.8-.2.6-.6 1.1-1.1 1.4-1.1.6-2.6.2-3.2-.9zM50.4 53.3c-4.4 4.4-10.1 7.2-16.2 8-.4-1.6-1.9-2.8-3.7-2.9-2.1 0-3.9 1.7-3.9 3.8 0 2.1 1.7 3.9 3.8 3.9 2 0 3.6-1.5 3.8-3.4 6.5-.8 12.5-3.8 17.1-8.4l-.9-1zM30.5 64.7v.7-.7c-1.3 0-2.4-1.1-2.4-2.4 0-1.3 1.1-2.4 2.4-2.4 1.3 0 2.4 1.1 2.4 2.4 0 1.4-1.1 2.4-2.4 2.4zM53 16.7c-.5.5-.8 1-1 1.7-.3 1-.2 2 .3 3 .7 1.2 2 2 3.4 2 .7 0 1.3-.2 1.9-.5 1.9-1 2.5-3.4 1.5-5.3-.7-1.2-2-2-3.4-2-.5 0-1 .1-1.4.3-4.1-5.5-9.9-9.5-16.6-11.1l-.4 1.5c6.3 1.5 11.8 5.2 15.7 10.4zm4.8 1.7c.6 1.1.2 2.6-.9 3.2-1.1.6-2.6.2-3.2-.9-.3-.6-.4-1.2-.2-1.8.2-.6.6-1.1 1.1-1.4.4-.2.8-.3 1.2-.3.8-.1 1.6.4 2 1.2zM57.7 45.2c1.6-3.7 2.4-7.6 2.4-11.7 0-2.5-.3-5-1-7.5l-1.4.4c.6 2.3.9 4.7.9 7.1 0 3.8-.8 7.5-2.3 11-.3-.1-.7-.1-1.1-.1-1.4 0-2.6.7-3.3 1.9-1.1 1.8-.5 4.2 1.3 5.3.6.4 1.3.5 2 .5 1.4 0 2.6-.7 3.3-1.9 1.1-1.6.7-3.8-.8-5zm-.4 4.3c-.6 1.1-2.2 1.5-3.3.8-1.1-.7-1.5-2.1-.8-3.3.4-.7 1.2-1.2 2-1.2.4 0 .8.1 1.2.3 1.2.8 1.6 2.2.9 3.4zM53 34l.5-.5-.5-.5c-.3-.3-6.8-6.8-15.9-9.3-2-.5-3.9-.8-5.8-.9h-1.6c-1.9.1-3.8.4-5.8.9-9.1 2.5-15.6 9-15.9 9.3l-.5.5.5.5c.1.1 3.6 3.6 8.9 6.5 4.6 2.5 9.1 3.7 13.5 3.7h.2c4.4 0 8.9-1.3 13.5-3.7 5.3-2.9 8.8-6.3 8.9-6.5zm-22.4 8.7s-.1 0 0 0h-.2c-5.1-.1-9.2-4.2-9.2-9.2 0-4.8 3.7-8.8 8.4-9.2h1.6c4.7.4 8.4 4.4 8.4 9.2.1 5.1-4 9.2-9 9.2zm-13-3.5c-3.9-2.1-6.8-4.6-8-5.7 1.7-1.5 7-6.1 13.9-8.2-2.3 2-3.8 4.9-3.8 8.1 0 3.3 1.5 6.2 3.8 8.2-1.9-.5-3.9-1.3-5.9-2.4zm19.9 2.5c2.3-2 3.8-4.9 3.8-8.2 0-3.3-1.5-6.2-3.8-8.1 6.9 2.1 12.2 6.6 13.9 8.2-1.2 1.1-4.1 3.6-8 5.7-2 1-4 1.8-5.9 2.4z"/>
        <path d="M30.5 30.3c-1.8 0-3.2 1.5-3.2 3.2 0 1.8 1.5 3.2 3.2 3.2 1.8 0 3.2-1.5 3.2-3.2 0-1.8-1.4-3.2-3.2-3.2zm0 4.9c-1 0-1.7-.8-1.7-1.7 0-1 .8-1.7 1.7-1.7 1 0 1.7.8 1.7 1.7 0 1-.7 1.7-1.7 1.7zM29.8 13.9h1.5V20h-1.5zM20.098 16.89l1.3-.75 3.05 5.283-1.3.75zM21.257 50.601l-1.299-.75 3.05-5.282 1.3.75zM29.6 46.7h1.5v6.1h-1.5zM40.771 49.892l-1.299.75-3.05-5.282 1.299-.75zM39.638 16.16l1.3.75-3.05 5.282-1.3-.75z"/>
    </g>
</svg>
