<svg xmlns="http://www.w3.org/2000/svg" width="56" height="59" viewBox="0 0 56 59">
    <g fill="#000" fill-rule="nonzero">
        <path d="M42.788 18.756a13.226 13.226 0 0 0-10.76 5.522c-.028-.025-.053-.05-.08-.073a19.554 19.554 0 0 0-5.665-3.228c2.578-2.187 4.214-5.438 4.214-9.062C30.497 5.345 25.12 0 18.508 0 11.898 0 6.519 5.346 6.519 11.916c0 3.937 1.932 7.432 4.902 9.604a19.523 19.523 0 0 0-5.7 3.942C2.03 29.128 0 34.002 0 39.186c0 .054.002.106.007.158a1.573 1.573 0 0 0-.007.157V56.01C0 57.109.895 58 2.002 58h33.013a1.996 1.996 0 0 0 2.002-1.99c0-1.1-.896-1.989-2.002-1.989H4.003v-14.52c0-.052-.002-.105-.006-.156.004-.053.006-.105.006-.158 0-8.026 6.198-14.64 14.086-15.363a11.996 11.996 0 0 0 1.732-.064 15.608 15.608 0 0 1 9.579 3.516c.26.214.559.35.868.414a13.016 13.016 0 0 0-.693 4.198c0 1.098.897 1.99 2.002 1.99a1.996 1.996 0 0 0 2.002-1.99c0-5.046 4.132-9.152 9.21-9.152 5.078 0 9.207 4.106 9.207 9.152 0 5.047-4.13 9.152-9.208 9.152a1.996 1.996 0 0 0-2.002 1.99v5.568c0 1.1.896 1.99 2.002 1.99 1.106 0 2.002-.89 2.002-1.99v-3.73C51.129 43.907 56 38.453 56 31.888c0-7.241-5.926-13.132-13.212-13.132zm-32.266-6.84c0-4.376 3.584-7.937 7.986-7.937 4.404 0 7.987 3.561 7.987 7.937 0 4.008-3.006 7.332-6.897 7.862l-.07-.001c-.511 0-1.02.02-1.526.06-4.168-.261-7.48-3.714-7.48-7.921z"/>
        <circle cx="43.5" cy="56.5" r="2.5"/>
    </g>
</svg>
