<svg xmlns="http://www.w3.org/2000/svg" width="66" height="66" viewBox="0 0 66 66">
    <g fill="#000" fill-rule="nonzero">
        <path d="M10.5 63.5h-8v-61h23.9c.6 0 1-.4 1-1s-.4-1-1-1H1.5c-.6 0-1 .4-1 1v63c0 .6.4 1 1 1h9c.6 0 1-.4 1-1s-.5-1-1-1zM33 27.2c3.2 0 5.8 2.6 5.8 5.8 0 3.2-2.6 5.7-5.8 5.7-3.2 0-5.7-2.6-5.7-5.7 0-3.2 2.5-5.8 5.7-5.8z"/>
        <path d="M65.5 1.5v63c0 .6-.4 1-1 1H18.4c-.6 0-1-.4-1-1 0-.5.4-1 1-1h45.1V48.6h-4.9v9c0 .5-.5 1-1 1H8.4c-.6 0-1-.5-1-1V41.7c0-.5.4-1 1-1 .5 0 1 .5 1 1v14.9h17.9v-4.9h-12c-.6 0-1-.5-1-1V15.3c0-.6.4-1 1-1h13c.5 0 1 .4 1 1s-.5 1-1 1h-2.4v4.9h18c.5 0 1 .5 1 1v6.1c0 .5-.5 1-1 1s-1-.5-1-1v-5.1H23.2v19.7h5.6c.6 0 1 .5 1 1 0 .6-.4 1-1 1h-6.6c-.5 0-1-.4-1-1V22.2c0-.5.5-1 1-1h1.7v-4.9h-7.6v33.4h33.4V16.3H36.8c-.6 0-1-.5-1-1s.4-1 1-1h13.9c.6 0 1 .4 1 1v35.4c0 .5-.4 1-1 1H29.3v4.9h27.4V24.7c0-.5.4-1 1-1 .5 0 1 .5 1 1v21.9h4.9V2.5H49.1v4.9h8.5c.5 0 1 .4 1 1v8.4c0 .5-.5 1-1 1-.6 0-1-.5-1-1V9.4H9.4v24.4c0 .5-.5 1-1 1-.6 0-1-.5-1-1V8.4c0-.6.4-1 1-1h38.7V2.5H34.3c-.5 0-1-.5-1-1s.5-1 1-1h30.2c.6 0 1 .4 1 1z"/>
        <path d="M37.4 44.8h6.5c.6 0 1-.4 1-1v-7.7c0-.6-.4-1-1-1s-1 .4-1 1v6.7h-5.5c-.6 0-1 .4-1 1s.4 1 1 1z"/>
    </g>
</svg>
